<?xml version="1.0" encoding="UTF-8"?>
<!DOCTYPE svg PUBLIC "-//W3C//DTD SVG 1.1//EN" "http://www.w3.org/Graphics/SVG/1.1/DTD/svg11.dtd">
<!-- Creator: CorelDRAW X7 -->
<svg xmlns="http://www.w3.org/2000/svg" xml:space="preserve" width="8.64004in" height="1.0964in" version="1.1" style="shape-rendering:geometricPrecision; text-rendering:geometricPrecision; image-rendering:optimizeQuality; fill-rule:evenodd; clip-rule:evenodd"
viewBox="0 0 8640 1096"
 xmlns:xlink="http://www.w3.org/1999/xlink">
 <defs>
  <style type="text/css">
   <![CDATA[
    .fil0 {fill:#FEFEFE;fill-rule:nonzero}
   ]]>
  </style>
 </defs>
 <g id="Layer_x0020_1">
  <metadata id="CorelCorpID_0Corel-Layer"/>
  <g id="_419956638288">
   <g>
    <path class="fil0" d="M1516 998l39 -15 1 0c55,-23 63,-38 61,-75l0 -149c42,107 82,183 164,183 11,0 23,-2 36,-4l32 -8 -22 -24c-14,-16 -21,-28 -29,-42 -3,-5 -6,-11 -10,-18 -20,-31 -65,-41 -102,-25 -17,-33 -34,-77 -54,-130l-5 -10c-3,-8 -7,-17 -10,-25l0 -1 -1 0c-13,-28 -26,-57 -42,-83 -15,-25 -30,-45 -46,-64 -42,-50 -99,-82 -168,-93 -48,-8 -81,-10 -124,-12 -9,0 -18,-1 -28,-1 -19,-1 -59,-4 -98,-8 -26,-2 -53,-4 -74,-6 2,-5 2,-12 2,-18 0,-8 0,-16 -2,-23l274 0c71,0 122,-31 153,-93 70,0 121,-32 151,-94l10 0c73,0 125,-34 155,-100l13 -27 -930 0c-61,0 -113,40 -132,102l-1 2c-16,-44 -45,-82 -82,-104 -51,-30 -110,-41 -157,-27 -15,4 -30,11 -43,19 -11,7 -26,19 -37,33 -12,15 -23,33 -31,51 -6,4 -10,9 -13,13l-11 21 -1 1c-13,30 -29,51 -42,66 -12,14 -13,28 -11,37 2,10 7,18 13,24l-1 1c-3,6 -5,14 -5,21 0,25 21,43 47,43 19,0 35,-9 52,-20 6,-4 24,-16 30,-17 7,0 14,7 14,14 0,21 -26,31 -45,33l-37 4c-28,2 -40,17 -40,30 0,13 6,20 10,24l3 3 9 9 -40 64c-28,-26 -62,-42 -91,-43 -19,-1 -36,5 -48,16 -4,4 -7,7 -9,12l-1 0c-32,0 -57,16 -69,36 -14,20 -9,56 8,84l-101 26 0 483 1853 0 0 -96 -337 0zm239 -132l0 0c4,6 7,12 10,17 3,7 7,13 12,20 -30,-2 -52,-18 -72,-48 19,-7 42,-2 50,11zm-401 -413l0 0c60,10 108,37 145,80 8,9 16,19 23,29 -100,-13 -135,-27 -192,-113 8,1 16,2 24,4zm-44 -144l0 0 -188 0c16,-14 29,-33 40,-55l257 0c-24,37 -59,55 -109,55zm151 -93l0 0 -189 0c17,-15 30,-33 42,-56l256 0c-24,38 -59,56 -109,56zm12 -144l0 0 256 0c-24,33 -58,49 -105,49l-189 0c15,-13 28,-30 38,-49zm-1032 9l0 0c6,-7 15,-16 27,-24 9,-6 21,-11 33,-14 19,-6 40,-6 62,-2l-68 42c-8,-1 -17,-1 -25,-1 -11,0 -22,1 -31,2 0,-1 1,-2 2,-3zm-80 300l0 0c1,-3 3,-5 5,-5l34 1c40,-1 81,-18 85,-60 0,-28 -20,-56 -48,-56 -15,0 -33,11 -52,23 -12,9 -22,15 -30,15 -5,0 -9,-3 -9,-6 0,0 0,-1 0,-1l22 -29 -19 -12c-4,-2 -10,-7 -10,-11 -1,-1 2,-4 3,-5 7,-9 16,-20 25,-33 5,-8 8,-12 17,-12 9,0 16,7 16,16 0,6 7,11 15,11 7,0 11,-6 16,-11 0,0 19,-17 9,-25 -12,-10 -57,9 -44,-32l3 -6c5,-7 26,-23 71,-23 9,0 18,1 27,2l7 1 95 -59c1,2 2,3 2,3l0 1c5,29 -14,63 -43,80l-11 6 7 44c-24,7 -42,27 -42,50 0,9 2,18 5,30 2,14 5,29 6,45 0,45 -62,74 -114,73l-1 0c-3,0 -36,-3 -44,-10 -2,-1 -3,-3 -3,-5zm-236 141l0 0c7,-12 25,-22 46,-18l17 3 5 -16c1,-4 3,-8 5,-10 5,-4 12,-6 21,-6 23,1 52,17 75,42 9,9 16,20 23,31 1,2 3,4 4,6 2,3 4,6 4,6 1,2 13,19 12,20 8,-11 16,-22 24,-33 0,0 -1,-1 -1,-3 -2,-4 -6,-10 -9,-14 0,-1 -1,-2 -2,-3 0,0 0,0 0,0 0,-1 -1,-2 -2,-5 -3,-4 -7,-10 -8,-13l50 -80c12,3 23,3 28,3l1 0c71,0 144,-41 144,-109l0 -1c-1,-19 -5,-37 -8,-51 -1,-9 -3,-18 -3,-23 0,-7 10,-15 25,-15l23 0 -10 -60c32,-23 52,-62 51,-98 34,26 59,72 63,121 1,14 -1,34 -6,55l-2 9 0 0c-8,34 -20,69 -27,86l-5 15 14 8c26,15 41,26 41,60 0,38 -35,68 -68,75l-47 8 39 26c13,9 21,22 21,37 0,24 -21,44 -47,44l-15 0 -4 14c-14,46 -30,69 -80,74 2,-14 4,-28 4,-47 0,-5 0,-17 0,-21l-3 -44 -30 31c-11,11 -29,19 -49,23l0 -38 -220 -57 -78 20c-17,-17 -21,-46 -16,-52zm-63 476l0 0 157 -41 158 41 -315 0zm338 -34l0 0 -181 -47 -181 47 0 -323 181 -47 181 47 0 323zm84 -63l0 0c-16,24 -18,56 -6,97l-39 0 0 -310c14,-2 29,-6 43,-13 0,14 -2,24 -5,39 0,3 -1,6 -2,10l-3 23 22 0c34,0 60,-6 79,-16l0 129c0,4 -3,6 -6,6l-5 0c-34,0 -62,13 -78,35zm417 9l0 0c-14,15 -27,43 -19,88l-235 0c26,-3 44,-9 57,-22 15,-16 16,-38 16,-53 0,-2 3,-7 14,-12l21 -9 -12 -19c-21,-31 -12,-98 -4,-135l2 0c80,0 131,-16 185,-34 15,-4 29,-9 45,-14l0 0c0,0 16,-5 38,-10l76 126 1 1c8,11 9,18 -5,34l-39 42 -62 -12 -1 0c-28,-4 -59,7 -78,29zm21 88l0 0c-7,-27 -4,-49 8,-63 12,-14 30,-18 43,-16l73 14 2 0 10 0 51 -56 1 0c9,-11 35,-42 8,-81l-69 -114c12,-1 23,-2 34,-2l0 0c0,0 35,-1 72,21 5,10 12,25 20,40 14,30 32,66 37,81 2,4 7,19 -11,36l-132 140 -147 0zm450 0l0 0 -250 0 107 -113c22,-22 29,-49 19,-76 -5,-15 -19,-44 -34,-74 43,20 107,38 238,48 16,2 20,7 23,21l6 57 -68 15c-23,5 -41,20 -50,41 -9,25 -6,53 9,81zm27 -67l0 0c4,-9 11,-15 21,-17l103 -23 -10 -92 0 -2c-2,-12 -10,-48 -58,-52 -183,-15 -225,-42 -270,-71 0,0 0,0 0,0l0 0 -3 -2c-48,-30 -95,-31 -100,-31 -51,0 -117,21 -122,23 -16,4 -31,9 -45,14 -58,18 -107,34 -191,32l-15 -1 -4 15c-3,11 -26,103 -3,162 -21,16 -21,34 -21,37 1,20 -3,25 -5,27 -10,10 -42,11 -68,11l-1 0 -10 0 -5 8c-17,23 -53,28 -76,22 -10,-31 -10,-54 0,-68 11,-16 36,-18 46,-18l5 0c25,0 44,-20 44,-45l0 -164c8,-12 14,-25 19,-40 40,-6 71,-40 71,-81 0,-16 -5,-31 -13,-44 37,-18 69,-55 69,-102 0,-48 -24,-70 -47,-85 6,-18 17,-50 24,-83l32 -115c15,-45 52,-74 96,-74l567 0c-24,33 -59,49 -106,49l-342 0 -18 39 307 0c-24,38 -60,56 -110,56l-223 0 -17 38 198 0c-24,37 -59,55 -108,55l-121 0 -18 38 127 0c1,2 4,8 4,23 0,25 -20,45 -46,45 -9,0 -16,-2 -29,-8 -6,-2 -11,-4 -17,-7l-30 27c6,2 11,4 17,7 26,11 40,17 59,17 24,0 45,-10 60,-26 22,2 57,5 91,8 40,3 79,6 99,7 10,1 19,1 28,2 17,0 32,1 48,2 77,126 117,142 266,160 11,20 21,40 30,61l0 244 0 1c1,12 1,15 -1,17 -5,7 -28,17 -36,20l-126 48c-17,-23 -23,-47 -16,-64z"/>
    <polygon class="fil0" points="360,690 239,659 239,699 360,730 "/>
    <polygon class="fil0" points="78,730 199,699 199,659 78,690 "/>
    <polygon class="fil0" points="78,810 199,778 199,739 78,770 "/>
    <polygon class="fil0" points="360,770 239,739 239,778 360,810 "/>
    <polygon class="fil0" points="360,850 239,818 239,858 360,889 "/>
    <polygon class="fil0" points="78,889 199,858 199,818 78,850 "/>
    <g>
     <polygon class="fil0" points="2175,1090 2133,1090 2133,790 2049,790 2049,754 2260,754 2260,790 2175,790 "/>
     <path class="fil0" d="M2507 922c0,84 -16,174 -108,174 -93,0 -109,-90 -109,-174 0,-85 16,-175 109,-175 92,0 108,90 108,175zm-173 0l0 0c0,77 7,141 65,141 57,0 65,-64 65,-141 0,-78 -8,-141 -65,-141 -58,0 -65,63 -65,141z"/>
     <polygon class="fil0" points="2664,1090 2622,1090 2622,790 2538,790 2538,754 2748,754 2748,790 2664,790 "/>
     <path class="fil0" d="M2824 754l56 0 90 336 -43 0 -24 -92 -108 0 -25 92 -43 0 97 -336zm-20 210l0 0 90 0 -43 -163 -1 0 -46 163z"/>
     <polygon class="fil0" points="2998,754 3040,754 3040,1053 3176,1053 3176,1090 2998,1090 "/>
     <polygon class="fil0" points="3329,754 3371,754 3371,1090 3329,1090 "/>
     <polygon class="fil0" points="3430,754 3484,754 3595,1034 3596,1034 3596,754 3637,754 3637,1090 3580,1090 3472,818 3471,818 3471,1090 3430,1090 "/>
     <path class="fil0" d="M3839 841c0,-35 -13,-60 -52,-60 -35,0 -56,19 -56,55 0,94 159,38 159,161 0,77 -57,99 -105,99 -78,0 -101,-40 -101,-112l41 0c0,38 2,79 63,79 33,0 58,-24 58,-60 0,-95 -158,-40 -158,-163 0,-31 13,-93 98,-93 64,0 93,32 94,94l-41 0z"/>
     <path class="fil0" d="M3932 754l42 0 0 236c0,49 16,73 57,73 44,0 57,-26 57,-73l0 -236 42 0 0 236c0,64 -33,106 -99,106 -67,0 -99,-37 -99,-106l0 -236z"/>
     <path class="fil0" d="M4185 754l109 0c53,0 86,31 86,84 0,37 -13,75 -52,85l0 1c29,3 46,27 48,56l3 57c1,37 8,47 17,53l-49 0c-8,-7 -11,-32 -12,-49l-3 -52c-3,-46 -28,-49 -50,-49l-56 0 0 150 -41 0 0 -336zm41 152l0 0 41 0c25,0 70,0 70,-65 0,-33 -23,-53 -61,-53l-50 0 0 118z"/>
     <path class="fil0" d="M4500 754l55 0 91 336 -44 0 -24 -92 -107 0 -25 92 -43 0 97 -336zm-20 210l0 0 90 0 -43 -163 -1 0 -46 163z"/>
     <polygon class="fil0" points="4674,754 4728,754 4839,1034 4840,1034 4840,754 4881,754 4881,1090 4824,1090 4716,818 4715,818 4715,1090 4674,1090 "/>
     <path class="fil0" d="M5146 975c-4,63 -29,121 -102,121 -96,0 -109,-90 -109,-174 0,-85 16,-175 109,-175 68,0 97,39 99,105l-43 0c-1,-38 -13,-71 -56,-71 -58,0 -65,63 -65,141 0,77 7,141 65,141 50,0 57,-48 59,-88l43 0z"/>
     <polygon class="fil0" points="5189,754 5363,754 5363,790 5230,790 5230,896 5355,896 5355,933 5230,933 5230,1053 5368,1053 5368,1090 5189,1090 "/>
     <path class="fil0" d="M5672 841c0,-35 -13,-60 -52,-60 -35,0 -56,19 -56,55 0,94 159,38 159,161 0,77 -57,99 -105,99 -78,0 -102,-40 -102,-112l42 0c0,38 2,79 63,79 33,0 58,-24 58,-60 0,-95 -158,-40 -158,-163 0,-31 13,-93 98,-93 64,0 93,32 94,94l-41 0z"/>
     <path class="fil0" d="M5981 922c0,84 -16,174 -108,174 -93,0 -109,-90 -109,-174 0,-85 16,-175 109,-175 92,0 108,90 108,175zm-173 0l0 0c0,77 7,141 65,141 57,0 65,-64 65,-141 0,-78 -8,-141 -65,-141 -58,0 -65,63 -65,141z"/>
     <polygon class="fil0" points="6035,754 6077,754 6077,1053 6213,1053 6213,1090 6035,1090 "/>
     <path class="fil0" d="M6245 754l42 0 0 236c0,49 16,73 57,73 44,0 57,-26 57,-73l0 -236 41 0 0 236c0,64 -33,106 -98,106 -68,0 -99,-37 -99,-106l0 -236z"/>
     <polygon class="fil0" points="6600,1090 6559,1090 6559,790 6474,790 6474,754 6685,754 6685,790 6600,790 "/>
     <polygon class="fil0" points="6720,754 6762,754 6762,1090 6720,1090 "/>
     <path class="fil0" d="M7023 922c0,84 -15,174 -108,174 -93,0 -108,-90 -108,-174 0,-85 15,-175 108,-175 93,0 108,90 108,175zm-173 0l0 0c0,77 8,141 65,141 58,0 65,-64 65,-141 0,-78 -7,-141 -65,-141 -57,0 -65,63 -65,141z"/>
     <polygon class="fil0" points="7069,754 7122,754 7233,1034 7234,1034 7234,754 7276,754 7276,1090 7219,1090 7111,818 7110,818 7110,1090 7069,1090 "/>
     <path class="fil0" d="M7477 841c0,-35 -12,-60 -52,-60 -35,0 -55,19 -55,55 0,94 158,38 158,161 0,77 -57,99 -104,99 -79,0 -102,-40 -102,-112l42 0c0,38 2,79 63,79 33,0 58,-24 58,-60 0,-95 -159,-40 -159,-163 0,-31 14,-93 99,-93 64,0 93,32 94,94l-42 0z"/>
    </g>
   </g>
   <g>
    <g>
     <path class="fil0" d="M5871 282l1 -236c147,0 202,-7 227,174l16 0 0 -201 -402 0 0 27 69 0 0 519 -76 0 0 27 414 0 0 -212 -21 0c-20,161 -61,185 -175,185l-53 0 0 -252c2,0 21,0 31,0 51,1 80,31 91,119l18 0 0 -260c0,0 -18,0 -18,0 0,1 -4,111 -93,110l-29 0z"/>
     <path class="fil0" d="M5707 292l-227 0 0 26 78 0 0 187c-13,47 -83,67 -104,67 -145,0 -135,-212 -135,-269 0,-52 -5,-269 135,-269 98,0 150,98 171,186l16 0c0,-36 0,-209 0,-209 0,-1 -67,49 -68,48 2,0 -31,-46 -119,-46 -171,0 -234,171 -233,290 1,109 51,294 233,294 57,0 98,-29 119,-62 1,0 72,57 73,57l0 -274 61 0 0 -26z"/>
     <path class="fil0" d="M8359 380c-21,161 -62,185 -176,185l-7 0 0 -519 73 0 0 -28 -238 0 0 28 72 0 0 519 -57 0 -212 -562 -31 0c0,-1 -176,510 -177,511 1,-1 -13,44 -42,49 -27,2 -25,-12 -25,-17l0 -98c0,-26 -2,-85 -29,-112 -30,-30 -81,-32 -80,-33 0,0 130,-27 130,-151 0,-87 -60,-130 -161,-134l-286 0 0 28 73 0 0 519c0,0 -71,0 -73,0l0 27 235 0 0 -27c-2,0 -73,0 -73,0l0 -250c-1,0 92,0 97,0 170,14 -29,278 193,277l140 0 0 -27c-8,0 -59,1 -62,-35 -2,-25 34,-118 34,-118l190 0c0,-1 59,153 60,153l-67 0 0 27 519 0 0 -212 -20 0zm-991 -94l0 0 -93 0 0 -240 119 0c70,11 73,91 73,117 0,62 -26,123 -99,123zm322 99l0 0 82 -248 88 248 -170 0z"/>
     <path class="fil0" d="M6831 46c148,0 202,-7 228,174l15 0 0 -201 -586 0 0 27 15 0c21,0 70,2 73,45l0 0 0 331 -275 -403 -149 0 0 27 25 0c29,0 71,1 73,45l0 424c0,41 -62,57 -88,57l-1 0 0 20 203 0 0 -20c-26,0 -89,-16 -89,-57l1 -373c109,155 314,451 316,450l10 0 0 -501c3,-43 52,-45 72,-45l68 0 0 519 -77 0 0 27 415 0 0 -212 -21 0c-21,161 -61,185 -175,185l-53 0 0 -252c1,0 20,0 30,0 52,1 81,31 91,119l19 0 0 -260c-1,0 -19,0 -19,0 0,1 -3,111 -93,110l-28 0 0 -236z"/>
     <polygon class="fil0" points="8640,46 8640,18 8406,18 8406,46 8480,46 8480,564 8406,564 8406,592 8640,592 8640,564 8567,564 8567,46 "/>
     <g>
      <path class="fil0" d="M2045 592l0 -28 78 0 0 -519 -71 0 0 -23 401 0 0 198 -15 0c-7,-45 -16,-79 -26,-104 -11,-22 -24,-39 -42,-49 -18,-11 -39,-17 -65,-18 -13,-1 -27,-1 -43,-2 -16,0 -33,-1 -50,-1l0 237c0,0 2,0 8,0 3,0 7,0 9,0 4,0 7,0 10,0 16,0 28,-2 38,-8 10,-4 18,-11 26,-19 2,-5 6,-9 8,-13 3,-4 5,-9 8,-14 1,-5 4,-9 5,-14 1,-4 1,-8 3,-13 1,-4 2,-7 2,-11 1,-3 1,-6 2,-9 0,-3 0,-5 0,-6 0,-1 0,-3 0,-3l10 0 9 0 0 260 -20 0c-2,-11 -3,-21 -5,-31 -2,-8 -5,-16 -6,-25 -6,-16 -12,-28 -19,-36 -8,-10 -17,-17 -26,-20 -9,-5 -20,-6 -34,-6l-28 0 0 249 76 0 0 28 -243 0z"/>
      <path class="fil0" d="M3446 233c-1,-7 -1,-15 -2,-25 -1,-6 -1,-12 -2,-17 -1,-6 -1,-12 -2,-18 -1,-12 -4,-25 -7,-38 -4,-13 -8,-24 -15,-36 -5,-10 -12,-18 -20,-26 -4,-3 -7,-6 -10,-9 -3,-3 -8,-6 -10,-7 -4,-3 -8,-5 -12,-7 -4,-2 -11,-5 -15,-5 -5,0 -54,0 -54,0 1,49 1,95 1,138 0,43 0,84 0,122l0 260 12 0 25 0 35 0 0 27 -239 0 0 -27 73 0 0 -520c0,0 -57,0 -72,3 -4,2 -7,3 -15,8 -3,1 -7,4 -11,6 -3,3 -7,5 -12,9 -7,7 -14,16 -20,26 -3,6 -6,12 -8,18 -3,6 -5,12 -6,18 -4,14 -6,26 -8,38 -1,6 -2,12 -2,18 0,5 -1,17 -1,17l-1 13 0 10 -18 0 0 -207 432 0 1 211 -17 0z"/>
      <path class="fil0" d="M4505 585c-6,3 -13,5 -19,5 -9,2 -17,4 -26,4 -23,0 -40,-4 -51,-11 -12,-9 -21,-18 -26,-30 -5,-14 -9,-28 -10,-43 0,-8 0,-17 0,-25 0,-8 0,-17 0,-24 0,-18 0,-35 0,-51 0,-16 -3,-31 -8,-45 -4,-12 -13,-23 -24,-34 -11,-8 -27,-13 -48,-16l-99 0 0 250 76 0 0 27 -238 0 0 -27 77 0 0 -514 -77 0 0 -29 288 0c14,0 25,0 36,1 11,1 22,3 33,6 19,5 36,13 49,24 14,9 24,23 32,40 7,18 11,38 11,61 0,32 -7,57 -22,75 -13,20 -28,36 -44,47 -20,13 -41,23 -64,28 0,0 0,0 1,0 2,1 4,1 6,2 4,0 6,1 9,2 4,0 8,1 11,2 9,2 17,5 27,11 9,3 18,9 26,16 6,7 12,16 16,26 3,9 7,19 8,30 1,6 2,11 2,16 1,5 1,10 2,15 0,4 0,9 0,14 0,3 0,7 0,11l0 98 0 5c0,1 1,3 2,6 2,1 4,3 8,5 1,1 7,1 15,1l19 -6 18 17c-3,5 -9,8 -16,10zm-145 -340l0 0c4,-5 8,-12 11,-18 1,-7 4,-14 5,-21 4,-15 5,-31 5,-46 0,-3 0,-7 0,-12 0,-5 -1,-11 -1,-16 -2,-14 -4,-26 -9,-38 -4,-12 -10,-22 -20,-33 -3,-4 -11,-9 -16,-10 -4,-3 -11,-6 -26,-6l-120 0 0 239 94 0c19,0 34,-3 46,-10 13,-6 23,-15 31,-29z"/>
      <path class="fil0" d="M4956 592l-414 0 0 -27 76 0 0 -520 -70 0 0 -23 402 0 0 198 -16 0c-4,-23 -7,-43 -11,-60 -5,-17 -9,-32 -14,-44 -11,-22 -25,-39 -43,-50 -17,-11 -39,-16 -65,-17 -13,-1 -27,-1 -43,-2 -16,0 -33,-1 -51,-1l0 237c0,0 3,0 10,0 3,0 7,0 9,0 4,0 7,0 10,0 14,0 26,-3 38,-8 11,-6 19,-13 25,-19 3,-6 6,-10 9,-14 3,-4 5,-8 7,-13 2,-6 3,-10 5,-14 2,-4 3,-9 3,-13 2,-5 3,-10 3,-14 1,-4 2,-10 2,-16l9 0 9 0 0 261 -20 0c-1,-11 -3,-21 -4,-31 -2,-8 -5,-17 -7,-25 -5,-16 -12,-29 -18,-37 -7,-9 -16,-16 -25,-20 -11,-5 -22,-6 -34,-6l-31 0 0 251 52 0c30,0 54,-1 73,-6 20,-4 37,-12 50,-25 13,-13 24,-33 32,-57 5,-12 9,-26 11,-42 4,-16 6,-34 9,-54l22 0 0 211z"/>
      <g>
       <path class="fil0" d="M2833 51l0 -29 167 0 0 29 -70 0 0 312c0,63 -4,105 -10,125 -20,72 -74,107 -161,107 -44,0 -84,-8 -118,-25 -40,-19 -65,-50 -75,-90 -6,-20 -8,-59 -8,-117l0 -313 -71 0 0 -28 232 0 0 28 -71 0 0 313c0,59 1,98 3,115 3,18 9,34 20,50 22,32 58,40 107,40 56,0 87,-21 106,-60 7,-17 12,-33 14,-50 2,-17 3,-49 3,-95l0 -312 -68 0z"/>
      </g>
      <g>
       <path class="fil0" d="M3838 51l0 -29 167 0 0 29 -70 0 0 312c0,63 -4,105 -10,125 -20,72 -74,107 -161,107 -44,0 -84,-8 -118,-25 -40,-19 -65,-50 -75,-90 -6,-20 -8,-59 -8,-117l0 -313 -71 0 0 -28 232 0 0 28 -71 0 0 313c0,59 1,98 3,115 3,18 10,34 21,50 22,32 57,40 106,40 56,0 87,-21 106,-60 8,-17 12,-33 14,-50 2,-17 3,-49 3,-95l0 -312 -68 0z"/>
      </g>
     </g>
    </g>
   </g>
  </g>
 </g>
</svg>
